Patient4_TMGait_0pt5_01_left_15_EMG.mot
version=1
nRows=20
nColumns=33
inDegrees=no
endheader
time	1LAddLong	2LGlutMax	3LGlutMed	4LIliopsoas	5LSemiMemb	6LBicFemLong	7LRecFem	8LVastMed	9LVastLat	10LGasMed	11LTibAnt	12lTibPost	13LPeroneusLong	14LSol	15LExtDigLong	16LFlexDigLong	17RAddLong	18RGlutMax	19RGlutMed	20RIliopsoas	21RSemiMemb	22RBicFemLong	23RRecFem	24RVastMed	25RVastLat	26RGasMed	27RTibAnt	28RTibPost	29RPeroneusLong	30RSol	31RExtDigLong	32RFlexDigLong
20.52	0.014801	1.0521	-0.13657	0.025787	-0.028076	-0.17075	-0.21774	0.011444	-0.063477	-0.051575	0.024261	-0.019073	-0.37781	-0.13931	0.001831	-0.016785	0.025024	-0.1236	-0.071259	0.07843	0.081787	0.075531	0.26337	0.016632	0.014496	-0.013123	-0.001526	-0.061493	0.30838	0.39337	0.000763	-0.019379
20.521	0.013275	1.1349	-0.19989	0.043488	-0.011139	-0.13214	-0.20096	0.001373	-0.10971	0.003662	0.028992	-0.007019	-0.20294	-0.11276	0.075378	0.23056	0.080109	-0.17716	-0.021057	0.11841	0.11673	0.11841	0.21545	0.046082	0.034943	-0.01358	0.004578	0.019073	0.2243	0.11444	-0.001831	-0.0177
20.522	0.030365	1.2572	-0.15152	0.033264	0.039673	-0.085907	-0.19455	-0.055847	-0.13702	0.062866	0.008392	0.00473	0.072327	0.014954	0.076904	0.030975	0.12756	-0.19302	-0.001678	0.02594	0.077209	0.11353	0.2066	0.049591	0.035553	-0.00824	-0.006409	0.009155	0.22064	0.29862	-0.000916	-0.015869
20.523	0.023041	1.2553	-0.1178	-0.001221	0.077362	-0.024872	-0.20615	-0.087891	-0.13916	0.20065	0.001831	0.009766	0.21408	-0.29144	0.004425	-0.1387	0.10834	-0.20798	0.021667	-0.043488	0.053711	0.06485	0.25757	-0.052338	0.015869	0.004272	0.007324	-0.05188	0.081635	0.25696	-0.000916	-0.019379
20.524	0.006409	1.2187	-0.13519	-0.014038	0.053101	0.035706	-0.1918	-0.087738	-0.1181	0.27649	0.004272	0.035095	-0.15503	-0.71289	0.041504	-0.090332	0.074921	-0.22675	0.004578	-0.049744	0.039673	0.013733	0.25543	-0.034943	0.016479	0.016632	0.010986	-0.072937	-0.14297	0.090027	-0.00061	-0.008392
20.525	0.012207	1.1494	0.034485	-0.006561	0.0354	0.041199	-0.28427	-0.055695	-0.086365	0.31647	0.001526	0.073242	-0.24643	-0.77438	0.005035	-0.03006	0.063934	-0.19699	-0.048676	0.004272	0.034332	-0.026855	0.2153	-0.038605	0.012207	0.023041	-0.003052	-0.041351	-0.0383	0.076904	-0.001373	-0.005646
20.526	0.006561	1.0129	0.019226	0.02594	0.002441	-0.019531	-0.19531	-0.028229	-0.062866	0.29007	-0.017853	0.028839	-0.031891	-0.67078	-0.004272	-0.00946	0.037689	-0.19104	-0.045013	-0.050201	-0.002899	-0.02655	0.19852	-0.089111	0.017395	0.014648	0.010681	-0.039215	0.22858	0.054016	-0.001831	-0.007935
20.527	-0.011292	0.92377	-0.088348	0.005035	0.014801	-0.19318	-0.21118	0.01297	-0.050964	0.15854	-0.018311	-0.13107	0.055695	-0.63767	0.028076	-0.01297	-0.016632	-0.21042	-0.050049	-0.074005	-0.015259	-0.006714	0.21179	-0.094604	0.022125	0.015411	0.015869	-0.042877	0.18173	0.005341	-0.000916	-0.01358
20.528	-0.016327	0.8432	-0.15442	-0.003815	0.012054	0.009155	-0.24399	0.022888	-0.034485	-0.048523	0.001984	-0.029755	0.063629	-0.625	0.023499	-0.008392	-0.068817	-0.21011	-0.10635	-0.065308	-0.030212	0.015259	0.21042	-0.068665	0.007477	0.005951	0.016632	-0.044861	0.066071	-0.10681	-0.000305	-0.006561
20.529	-0.014954	0.71289	-0.1297	-0.019226	0.006866	0.019836	-0.2565	0.009766	0.048218	-0.16892	0.022278	-0.004578	0.019073	-0.44907	0.028992	-0.004883	-0.065002	-0.20371	-0.066223	-0.15793	-0.034027	0.085144	0.18601	-0.10742	0.025177	0.007629	0.039215	-0.046387	-0.022125	-0.19043	-0.00061	-0.014038
20.53	-0.028229	0.59692	-0.16068	0.002136	-0.001373	0.12863	-0.18631	-0.006104	0.036469	-0.13168	0.063324	-0.006256	-0.031586	-0.081024	0.037994	-0.003662	-0.009918	-0.19333	-0.023346	-0.26291	-0.025635	0.061798	0.15015	-0.070648	0.004578	0.010681	0.091248	-0.046997	-0.041962	-0.19592	0.001984	-0.007629
20.531	-0.040436	0.47318	-0.067596	0.012665	-0.023499	0.20065	-0.12756	-0.015869	-0.037842	-0.13214	0.05661	0.002747	-0.20065	0.31235	0.056152	-0.001373	0.002289	-0.19989	-0.040436	-0.23865	-0.020752	0.057831	0.13275	-0.048523	0.006714	0.011597	0.066223	-0.023651	0.2243	-0.14313	0.001373	-0.011139
20.532	-0.04364	0.40512	0.085754	0.029144	-0.039063	0.22842	-0.11017	-0.011902	0.039063	-0.1535	-0.014954	0.008698	-0.22553	0.5513	0.040741	0.015869	-0.000458	-0.25848	-0.047455	-0.17914	-0.015869	0.075226	0.14481	-0.058289	0.000458	0.007935	0.070648	-0.035095	-0.077515	-0.11978	0.00351	-0.008392
20.533	-0.024414	0.31616	0.01709	0.015717	-0.025177	0.19531	-0.16022	-0.014191	0.09613	-0.11002	-0.030518	0.018005	-0.34912	0.45959	-0.029907	-0.006866	0.00351	-0.3038	-0.063934	-0.0383	-0.003815	0.089264	0.14725	-0.099335	-0.019989	0.004272	0.021973	-0.007935	-0.11368	-0.089417	-0.000305	-0.008698
20.534	-0.022278	0.21149	-0.022278	0.006714	-0.00351	0.059967	-0.09903	0.000153	0.21805	-0.074463	-0.025177	0.010529	-0.013733	0.29587	-0.068817	-0.001678	0.016937	-0.32501	-0.078278	0.15503	-0.012817	0.084381	0.11932	-0.08606	-0.007782	0.001526	-0.097656	-0.083618	0.066376	-0.057068	-0.001678	-0.015869
20.535	-0.027161	0.11002	-0.013428	0.01297	0.005493	0.011139	-0.15259	-0.00946	0.31616	-0.054321	-0.034027	0.01358	0.63232	0.24887	-0.052032	0.002747	0.017395	-0.3569	-0.045013	0.29114	-0.003662	0.072784	0.13443	0.010681	-0.013428	0.000458	-0.047302	-0.011749	0.15976	-0.048981	-0.00061	-0.020294
20.536	-0.019989	0.076294	-0.047302	0.009155	-0.052643	-0.077515	-0.23987	-0.007629	0.28564	-0.017242	-0.024414	0.017242	1.1156	0.28458	-0.028534	-0.00824	0.020447	-0.34286	-0.087433	0.2359	0.008392	0.072632	0.12085	0.004425	0.008087	0.003357	-0.039368	-0.033569	0.13809	-0.010223	0.00061	-0.024414
20.537	-0.036163	-0.020142	-0.040894	0.008545	-0.069885	-0.13489	-0.12039	0.00351	0.079803	0.030365	0.007782	0.010834	1.2009	0.27268	0.013733	-0.008087	0.019684	-0.42923	-0.16159	0.10483	0.011597	0.062408	0.12314	0.011749	0.000916	0.000305	-0.064392	-0.036926	0.19653	-0.014038	0.001221	-0.029755
20.538	-0.033112	-0.015106	-0.020752	0.028229	-0.10254	-0.058746	-0.041504	0.016022	-0.28275	-0.049744	0.005035	0.025635	0.81314	0.31235	0.078125	-0.005341	0.041351	-0.49027	-0.18417	0.020905	0.01709	0.079193	0.14557	0.005798	-0.023193	0.002289	-0.17456	-0.033875	0.12131	-0.009613	0.001526	-0.019836
20.539	-0.032349	-0.003967	-0.002747	0.017242	-0.16861	0.32761	-0.082245	0.018311	-0.36804	-0.081177	0.021973	0.023804	-0.87219	0.27466	0.045013	-0.005493	0.050964	-0.4953	-0.094604	0.022888	0.027161	0.064697	0.10407	0.003967	0.001068	0.004578	-0.16144	-0.027313	-0.27191	0.013733	0.001221	-0.023499
